<?xml version="1.0" standalone="no"?>
<!DOCTYPE svg PUBLIC "-//W3C//DTD SVG 20010904//EN"
 "http://www.w3.org/TR/2001/REC-SVG-20010904/DTD/svg10.dtd">
<svg version="1.0" xmlns="http://www.w3.org/2000/svg"
 width="1001.000000pt" height="278.000000pt" viewBox="0 0 1001.000000 278.000000"
 preserveAspectRatio="xMidYMid meet">

<g transform="translate(0.000000,278.000000) scale(0.100000,-0.100000)"
fill="#000000" stroke="none">
<path d="M4642 2148 l3 -293 293 -3 292 -2 0 295 0 295 -295 0 -295 0 2 -292z
m418 16 c44 -92 77 -170 74 -175 -6 -11 -65 -12 -80 -1 -6 4 -32 54 -58 112
-26 58 -51 108 -55 113 -4 4 -26 -37 -50 -90 -60 -136 -65 -143 -106 -143 -18
0 -37 5 -41 11 -3 6 29 85 72 175 l77 164 44 0 44 0 79 -166z"/>
<path d="M430 1260 l0 -590 2105 0 2105 0 0 590 0 590 -2105 0 -2105 0 0 -590z
m1692 429 c107 -23 198 -82 265 -172 142 -194 97 -486 -98 -620 -187 -128
-418 -109 -576 49 -169 169 -167 452 4 623 110 109 255 152 405 120z m2070
-19 c247 -93 358 -385 237 -622 -33 -64 -124 -154 -190 -187 -175 -88 -376
-55 -515 83 -135 136 -169 330 -88 502 51 108 167 206 284 239 74 20 197 14
272 -15z m-3032 4 c114 -26 212 -100 262 -198 42 -82 48 -129 48 -393 l0 -253
-94 0 -94 0 -3 253 -4 254 -30 58 c-25 50 -39 63 -84 87 -52 27 -58 28 -212
28 l-159 0 -2 -337 -3 -338 -95 0 -95 0 -3 415 c-1 228 0 421 3 427 7 20 475
18 565 -3z m2061 -12 c123 -49 199 -124 242 -239 28 -77 30 -243 4 -319 -39
-113 -124 -201 -234 -246 -55 -21 -74 -23 -340 -26 l-283 -3 0 431 0 432 278
-4 c258 -4 281 -5 333 -26z"/>
<path d="M1980 1500 c-118 -23 -190 -116 -190 -245 0 -150 94 -245 240 -245
97 0 170 42 213 124 31 58 31 184 0 242 -49 93 -159 145 -263 124z"/>
<path d="M3982 1499 c-116 -22 -188 -118 -186 -250 0 -87 40 -161 109 -204
106 -66 258 -38 326 61 131 191 -24 437 -249 393z"/>
<path d="M2800 1254 l0 -256 163 4 c174 5 214 15 263 70 80 88 84 277 7 369
-50 59 -88 69 -270 69 l-163 0 0 -256z"/>
<path d="M7770 1844 c-42 -15 -60 -29 -70 -54 -15 -36 4 -76 54 -114 21 -16
36 -36 36 -48 0 -20 -4 -20 -61 -14 l-61 6 7 -33 c4 -17 9 -34 11 -36 3 -3 30
-7 62 -9 95 -7 152 29 152 96 0 8 -23 37 -51 63 -37 34 -50 52 -45 65 5 14 15
16 52 10 l46 -6 -6 32 c-3 17 -7 33 -9 34 -6 6 -103 13 -117 8z"/>
<path d="M5705 1738 c-9 -130 -6 -146 28 -172 24 -18 43 -21 115 -21 139 0
158 23 164 203 l3 92 -52 0 -53 0 -1 -57 c0 -82 -14 -154 -30 -164 -22 -14
-46 -11 -64 8 -15 14 -16 30 -10 115 l7 98 -50 0 -50 0 -7 -102z"/>
<path d="M6076 1733 c-4 -60 -9 -127 -12 -150 l-5 -43 44 0 45 0 8 93 9 92 48
-92 48 -93 60 0 c39 0 61 4 63 13 3 6 7 74 10 150 l7 137 -46 0 -45 0 -1 -42
c0 -24 -4 -65 -8 -93 l-7 -50 -44 93 -43 92 -62 0 -63 0 -6 -107z"/>
<path d="M6460 1758 c0 -46 -3 -113 -7 -150 l-6 -68 57 0 56 0 0 83 c0 45 3
112 7 150 l6 67 -57 0 -56 0 0 -82z"/>
<path d="M6620 1833 c0 -5 22 -71 49 -148 l49 -140 58 -3 59 -3 73 146 c39 80
72 148 72 151 0 3 -23 4 -51 2 l-51 -3 -44 -105 c-25 -57 -47 -106 -49 -108
-2 -2 -9 16 -15 39 -6 24 -20 74 -31 112 l-20 67 -49 0 c-28 0 -50 -3 -50 -7z"/>
<path d="M7026 1713 c-4 -71 -10 -138 -13 -150 -5 -23 -5 -23 126 -23 l131 0
0 35 0 35 -75 0 c-73 0 -75 1 -75 25 0 24 2 25 65 25 l65 0 0 35 0 35 -60 -7
c-60 -6 -60 -6 -60 21 0 26 1 26 75 26 l75 0 0 35 0 35 -124 0 -123 0 -7 -127z"/>
<path d="M7346 1723 c-4 -65 -9 -133 -12 -150 l-5 -33 49 0 49 0 8 120 c6 114
8 120 28 120 46 0 67 -12 67 -36 0 -21 -20 -38 -57 -49 -1 0 6 -34 16 -75 l17
-75 52 -3 c29 -2 52 1 52 6 0 5 -9 35 -20 66 l-20 58 30 25 c24 19 30 33 30
62 0 64 -22 75 -160 79 l-118 4 -6 -119z"/>
<path d="M7970 1773 c0 -38 -3 -105 -7 -150 l-6 -83 52 0 c32 0 53 5 56 13 2
6 5 74 8 150 l4 137 -54 0 -53 0 0 -67z"/>
<path d="M8140 1751 c0 -48 -3 -116 -7 -151 l-6 -63 112 5 c125 5 152 17 183
79 22 42 23 120 2 160 -23 45 -67 59 -184 59 l-100 0 0 -89z m186 -6 c36 -54
-5 -135 -67 -135 -26 0 -29 3 -29 34 0 18 3 54 6 80 6 44 8 46 40 46 25 0 38
-7 50 -25z"/>
<path d="M8516 1694 c-42 -81 -76 -149 -76 -150 0 -2 24 -4 54 -4 53 0 54 0
70 40 l16 40 60 0 59 0 12 -40 12 -40 54 0 c29 0 53 1 53 3 0 1 -24 67 -54
147 l-53 145 -65 3 -66 3 -76 -147z m152 37 c16 -52 17 -51 -24 -51 -30 0 -35
3 -29 18 4 9 12 29 17 45 14 37 23 34 36 -12z"/>
<path d="M8880 1788 c0 -29 -3 -97 -7 -152 l-6 -98 104 4 c126 5 162 20 190
81 23 51 24 94 3 146 -23 57 -59 71 -183 71 l-101 0 0 -52z m174 -34 c10 -9
16 -33 16 -60 0 -53 -26 -84 -70 -84 l-30 0 0 80 0 80 34 0 c19 0 42 -7 50
-16z"/>
<path d="M5687 1173 c-6 -196 -15 -312 -33 -455 l-7 -48 322 0 c248 0 323 3
326 13 2 6 5 51 7 98 l3 85 -182 -4 -183 -5 0 42 0 41 150 0 150 0 0 79 c0 44
3 86 6 95 5 14 -11 16 -140 16 l-146 0 0 35 0 35 179 0 178 0 7 38 c3 20 6 63
6 95 l0 57 -318 0 -319 0 -6 -217z"/>
<path d="M6640 1243 c-41 -81 -127 -242 -192 -357 l-116 -211 141 -3 c78 -1
146 -1 152 1 6 3 28 46 50 96 l40 91 122 0 121 0 32 -95 32 -95 145 0 c134 0
145 1 138 18 -56 144 -146 384 -196 524 l-64 178 -165 0 -165 0 -75 -147z
m255 -137 l23 -76 -64 0 -64 0 14 33 c40 93 58 128 63 124 2 -3 15 -39 28 -81z"/>
<path d="M7387 1183 c-7 -199 -21 -411 -32 -480 l-6 -33 144 0 c171 0 157 -14
157 158 l0 112 150 0 150 0 0 58 c0 31 3 74 6 95 l7 37 -152 0 -151 0 0 35 0
35 185 0 185 0 0 79 c0 44 3 86 6 95 6 14 -27 16 -318 16 l-325 0 -6 -207z"/>
<path d="M8086 1223 c-4 -93 -11 -235 -16 -316 -6 -82 -10 -168 -10 -193 l0
-44 140 0 140 0 0 43 c1 73 18 467 26 575 l7 102 -141 0 -140 0 -6 -167z"/>
<path d="M8420 1341 c0 -26 -3 -69 -6 -95 l-7 -46 120 0 120 0 -4 -97 c-3 -90
-23 -395 -26 -418 -1 -6 50 -10 138 -10 l140 0 6 190 c4 105 10 223 14 263 l7
72 119 0 119 0 0 95 0 95 -370 0 -370 0 0 -49z"/>
</g>
</svg>
